<svg version="1.1" xmlns="http://www.w3.org/2000/svg" viewBox="0 0 1021.7209569905116 952.5487329743944" width="1021.7209569905116" height="952.5487329743944"><!-- svg-source:excalidraw --><metadata></metadata><defs><style class="style-fonts">
      </style></defs><rect x="0" y="0" width="1021.7209569905116" height="952.5487329743944" fill="#ffffff"></rect><g stroke-linecap="round" transform="translate(273.03172581382637 238.05693283704954) rotate(0 184.60057857113162 167.09534579785043)"><path d="M235.79 5.82 C252.5 7.03, 268.54 16.44, 283.18 24.87 C297.82 33.29, 312.22 44.55, 323.65 56.38 C335.07 68.22, 344.34 81.73, 351.74 95.88 C359.15 110.03, 365.46 125.55, 368.06 141.29 C370.67 157.03, 369.94 174.57, 367.36 190.31 C364.79 206.05, 359.68 221.64, 352.6 235.73 C345.51 249.83, 336.09 263.01, 324.86 274.86 C313.63 286.71, 299.62 297.99, 285.23 306.84 C270.83 315.69, 254.89 323.28, 238.51 327.99 C222.13 332.69, 204.4 334.99, 186.95 335.07 C169.49 335.16, 150.46 333.11, 133.8 328.51 C117.14 323.91, 101.51 316.07, 86.98 307.46 C72.46 298.85, 58.34 288.37, 46.63 276.85 C34.93 265.33, 24.05 252.29, 16.75 238.33 C9.45 224.37, 5.36 208.7, 2.86 193.1 C0.36 177.5, -0.33 160.26, 1.76 144.74 C3.85 129.22, 8.23 114.19, 15.39 99.96 C22.54 85.72, 33.31 71.31, 44.7 59.34 C56.1 47.36, 69.25 36.84, 83.77 28.12 C98.3 19.39, 115.21 11.51, 131.85 6.97 C148.49 2.43, 165.13 0.7, 183.61 0.88 C202.08 1.07, 231.86 6.07, 242.7 8.1 C253.54 10.12, 249.5 10.22, 248.64 13.04 M218.17 1.39 C235.08 1.11, 252.23 9.49, 267.89 16.68 C283.55 23.87, 299.53 33.44, 312.11 44.52 C324.69 55.59, 334.52 69.53, 343.35 83.13 C352.19 96.72, 360.73 110.86, 365.13 126.08 C369.53 141.3, 370.93 158.46, 369.75 174.46 C368.58 190.46, 363.85 207.55, 358.08 222.07 C352.3 236.6, 344.87 249.14, 335.11 261.63 C325.36 274.11, 313.04 286.86, 299.57 296.98 C286.09 307.09, 270.11 316.09, 254.27 322.29 C238.43 328.5, 221.84 332.61, 204.54 334.2 C187.25 335.79, 167.87 334.74, 150.49 331.85 C133.1 328.96, 115.45 324.3, 100.25 316.88 C85.04 309.46, 71.72 298.07, 59.26 287.34 C46.81 276.6, 34.42 265.61, 25.53 252.45 C16.63 239.3, 10.24 223.98, 5.91 208.4 C1.57 192.81, -1.36 174.49, -0.48 158.92 C0.39 143.35, 5.77 129.75, 11.18 114.99 C16.6 100.23, 22.53 83.32, 32 70.36 C41.47 57.39, 54.19 46.81, 68.01 37.2 C81.82 27.59, 98.58 18.94, 114.89 12.7 C131.2 6.46, 148.43 1.26, 165.87 -0.23 C183.31 -1.72, 211.12 2.83, 219.55 3.76 C227.97 4.69, 217.2 2.96, 216.41 5.36" stroke="#f08c00" stroke-width="4" fill="none"></path></g><g stroke-linecap="round" transform="translate(269.05325305829354 241.239689187139) rotate(0 186.98763672772486 162.7190330515433)"><path d="M180.18 0.41 C196.82 -2.68, 217.02 1.79, 234.17 5.55 C251.31 9.31, 268.17 15.21, 283.07 22.98 C297.97 30.75, 311.65 40.95, 323.57 52.17 C335.49 63.39, 346.59 76.73, 354.59 90.29 C362.58 103.86, 368.56 118.52, 371.52 133.54 C374.49 148.56, 374.33 165.16, 372.37 180.41 C370.41 195.65, 366.33 211, 359.76 225.02 C353.19 239.05, 343.97 252.63, 332.94 264.55 C321.91 276.47, 308.15 287.92, 293.6 296.53 C279.04 305.13, 262.42 311.32, 245.62 316.19 C228.81 321.06, 210.32 325.18, 192.78 325.74 C175.24 326.3, 157.38 323.3, 140.39 319.56 C123.39 315.82, 106.02 311.07, 90.83 303.31 C75.63 295.54, 61.19 284.21, 49.2 272.95 C37.22 261.69, 26.56 249.39, 18.92 235.73 C11.29 222.07, 6.25 206.11, 3.37 191 C0.5 175.89, -0.19 160.24, 1.65 145.07 C3.49 129.9, 7.73 114.12, 14.41 99.97 C21.09 85.83, 30.61 71.95, 41.76 60.2 C52.91 48.45, 66.89 38.26, 81.31 29.5 C95.73 20.74, 111.02 12.7, 128.28 7.66 C145.54 2.62, 174.59 0, 184.88 -0.72 C195.17 -1.44, 189.86 0.6, 190.01 3.34 M122.15 9.05 C136.8 1.57, 158.2 0.23, 175.72 -0.64 C193.23 -1.52, 210.32 0.35, 227.24 3.79 C244.17 7.23, 261.63 12.72, 277.26 20.02 C292.88 27.32, 308.32 36.78, 320.98 47.59 C333.65 58.41, 345.02 71.28, 353.26 84.92 C361.5 98.55, 367.28 114.45, 370.4 129.38 C373.53 144.32, 373.3 159.06, 372.02 174.52 C370.73 189.98, 368.75 207.63, 362.69 222.15 C356.63 236.67, 346.39 249.65, 335.63 261.63 C324.88 273.62, 312.09 285.26, 298.18 294.06 C284.28 302.86, 268.83 309.48, 252.22 314.42 C235.61 319.37, 216.05 322.79, 198.53 323.72 C181 324.66, 163.95 323.25, 147.07 320.05 C130.18 316.84, 112.73 311.49, 97.23 304.5 C81.74 297.51, 66.86 289.1, 54.1 278.13 C41.34 267.15, 28.82 252.47, 20.69 238.67 C12.55 224.87, 8.42 210.04, 5.28 195.33 C2.13 180.62, 0.63 165.47, 1.8 150.39 C2.97 135.31, 6.02 119.25, 12.31 104.86 C18.61 90.48, 28.84 76.34, 39.56 64.09 C50.29 51.83, 62.62 40.27, 76.67 31.32 C90.73 22.38, 115.9 13.64, 123.89 10.42 C131.87 7.2, 123.81 9.78, 124.6 11.99" stroke="#1e1e1e" stroke-width="4" fill="none"></path></g><g stroke-linecap="round" transform="translate(337.4828241883207 339.1098567212032) rotate(0 35.4082873253891 35.01044733461481)"><path d="M37.54 1 C43.89 0.89, 50.94 3.36, 56.38 7.39 C61.82 11.42, 68.14 18.71, 70.19 25.2 C72.25 31.68, 71.27 39.8, 68.72 46.3 C66.16 52.8, 60.71 60.4, 54.87 64.18 C49.04 67.97, 40.61 69.37, 33.71 69.01 C26.82 68.66, 18.84 66.15, 13.52 62.07 C8.2 58, 3.83 51.16, 1.81 44.56 C-0.22 37.95, -0.93 28.9, 1.36 22.44 C3.65 15.98, 9.16 9.58, 15.54 5.79 C21.93 2.01, 35.49 0.56, 39.68 -0.28 C43.87 -1.11, 41.01 0.2, 40.71 0.78 M33.63 -1.05 C40.32 -2.04, 49.55 0.9, 55.42 5.23 C61.28 9.57, 66.33 18.43, 68.85 24.94 C71.37 31.45, 72.66 37.94, 70.55 44.29 C68.45 50.65, 62.05 58.89, 56.22 63.09 C50.4 67.29, 42.38 69.64, 35.59 69.48 C28.8 69.32, 20.96 65.9, 15.48 62.12 C9.99 58.34, 5.12 52.97, 2.68 46.79 C0.24 40.61, -1.12 31.46, 0.83 25.04 C2.78 18.62, 8.95 12.25, 14.4 8.27 C19.85 4.29, 29.94 2.38, 33.53 1.16 C37.13 -0.06, 35.48 0.58, 35.95 0.96" stroke="none" stroke-width="0" fill="#ffc9c9"></path><path d="M19.21 4.26 C24.89 0.79, 34.77 -1.51, 41.47 -0.43 C48.18 0.65, 54.75 5.72, 59.44 10.74 C64.13 15.75, 68.45 22.86, 69.63 29.65 C70.8 36.43, 69.6 45.51, 66.51 51.44 C63.43 57.38, 57.28 62.29, 51.1 65.27 C44.93 68.25, 36.39 70.36, 29.47 69.32 C22.54 68.27, 14.28 63.66, 9.57 59.02 C4.85 54.38, 2.09 47.98, 1.17 41.47 C0.25 34.97, 0.57 26.56, 4.05 19.98 C7.54 13.41, 18.74 5.06, 22.07 2.02 C25.39 -1.01, 24 1.1, 24.02 1.78 M40.33 -0.09 C47.15 0.35, 54.56 4.04, 59.51 8.81 C64.47 13.58, 68.61 21.69, 70.05 28.54 C71.49 35.38, 71.14 43.63, 68.14 49.89 C65.14 56.14, 58.29 62.97, 52.04 66.05 C45.79 69.13, 37.28 69.01, 30.63 68.37 C23.98 67.73, 17.09 66.57, 12.14 62.21 C7.19 57.86, 2.37 49.33, 0.93 42.24 C-0.51 35.15, 0.68 26.2, 3.5 19.68 C6.32 13.16, 11.81 6.4, 17.83 3.14 C23.85 -0.13, 36.19 0.31, 39.62 0.1 C43.05 -0.11, 38.6 1.12, 38.41 1.89" stroke="#1e1e1e" stroke-width="4" fill="none"></path></g><g stroke-linecap="round" transform="translate(494.2341481065648 339.1098567212032) rotate(0 35.40828732538904 35.01044733461481)"><path d="M38.24 0.72 C44.73 0.94, 52.79 4.71, 58.02 8.83 C63.25 12.96, 67.76 18.82, 69.6 25.46 C71.44 32.09, 71.62 42.13, 69.05 48.67 C66.48 55.21, 60.12 61.31, 54.21 64.7 C48.3 68.09, 40.39 69.34, 33.58 69 C26.77 68.66, 18.72 66.98, 13.36 62.66 C8 58.35, 3.08 49.73, 1.41 43.1 C-0.27 36.47, 0.92 29.24, 3.33 22.89 C5.74 16.54, 9.36 8.8, 15.84 5.01 C22.33 1.22, 37.2 0.65, 42.24 0.15 C47.28 -0.34, 46.43 1.42, 46.07 2.02 M46.78 0.65 C53.38 2.02, 61.12 8.92, 65.18 14.43 C69.24 19.94, 71.29 26.72, 71.12 33.72 C70.96 40.72, 68.22 50.48, 64.19 56.45 C60.16 62.42, 53.66 67.52, 46.96 69.54 C40.26 71.56, 30.46 70.96, 23.99 68.56 C17.53 66.17, 12.27 60.64, 8.16 55.17 C4.05 49.69, -0.25 42.4, -0.65 35.74 C-1.04 29.08, 1.54 20.89, 5.81 15.18 C10.07 9.47, 18.04 3.79, 24.96 1.48 C31.87 -0.83, 43.66 1.25, 47.31 1.33 C50.95 1.41, 47.14 1.3, 46.84 1.96" stroke="none" stroke-width="0" fill="#ffc9c9"></path><path d="M33.45 -0.58 C40.27 -1.48, 49.38 1.37, 55.33 5.24 C61.27 9.12, 66.88 16.21, 69.15 22.69 C71.41 29.17, 70.71 37.67, 68.91 44.13 C67.12 50.58, 63.48 56.94, 58.36 61.41 C53.24 65.88, 45.34 70.46, 38.17 70.95 C30.99 71.44, 21.15 68.28, 15.31 64.35 C9.46 60.43, 5.45 53.92, 3.1 47.4 C0.76 40.89, -0.37 31.85, 1.24 25.28 C2.85 18.7, 7 12.33, 12.78 7.96 C18.56 3.58, 31.53 0.29, 35.9 -0.97 C40.28 -2.24, 38.88 -0.36, 39.02 0.37 M21.74 3.8 C27.7 0.85, 36.49 -0.66, 43.18 0.6 C49.88 1.87, 57.43 6.09, 61.91 11.39 C66.39 16.69, 69.65 25.16, 70.07 32.41 C70.49 39.65, 68.2 49.18, 64.44 54.84 C60.67 60.5, 53.79 64.21, 47.48 66.37 C41.16 68.53, 33.07 69.09, 26.53 67.82 C20 66.56, 12.46 64.02, 8.28 58.8 C4.09 53.57, 1.98 43.51, 1.42 36.48 C0.87 29.44, 1.56 22.33, 4.94 16.59 C8.33 10.85, 18.77 4.53, 21.75 2.06 C24.72 -0.41, 22.4 1.05, 22.8 1.76" stroke="#1e1e1e" stroke-width="4" fill="none"></path></g><g transform="translate(390.7941478538704 481.5387224282031) rotate(0 72.01014925894333 -5.967654497457033)" stroke="none"><path fill="#1e1e1e" d="M 4.44,-9.29 Q 4.44,-9.29 9.68,-6.73 14.92,-4.17 19.27,-1.92 23.62,0.31 27.63,1.88 31.63,3.44 39.76,5.60 47.88,7.77 54.59,8.41 61.29,9.06 68.23,8.88 75.16,8.71 82.33,7.64 89.50,6.56 94.02,5.04 98.54,3.51 102.89,1.43 107.23,-0.65 111.81,-3.77 116.39,-6.89 119.54,-10.83 122.70,-14.77 125.00,-19.51 127.31,-24.25 129.28,-28.78 131.24,-33.30 130.66,-33.57 130.08,-33.84 130.64,-36.04 131.20,-38.23 132.43,-40.13 133.66,-42.03 135.43,-43.44 137.21,-44.84 139.34,-45.61 141.47,-46.38 143.73,-46.43 146.00,-46.47 148.16,-45.79 150.32,-45.11 152.15,-43.78 153.98,-42.45 155.28,-40.60 156.59,-38.75 157.24,-36.58 157.89,-34.42 157.82,-32.15 157.74,-29.89 156.95,-27.77 156.15,-25.65 154.72,-23.90 153.29,-22.14 151.38,-20.93 149.46,-19.73 147.26,-19.20 145.06,-18.66 142.80,-18.86 140.55,-19.06 138.47,-19.97 136.40,-20.88 134.72,-22.40 133.05,-23.92 131.95,-25.90 130.85,-27.88 130.44,-30.11 130.02,-32.33 130.34,-34.57 130.67,-36.82 131.69,-38.84 132.70,-40.86 134.32,-42.45 135.93,-44.04 137.96,-45.03 140.00,-46.02 142.24,-46.31 144.49,-46.60 146.71,-46.16 148.93,-45.72 150.89,-44.59 152.86,-43.47 154.36,-41.77 155.86,-40.07 156.74,-37.99 157.62,-35.90 157.79,-33.65 157.96,-31.39 157.96,-31.39 157.96,-31.39 156.69,-26.05 155.43,-20.71 153.53,-16.18 151.63,-11.64 149.41,-7.63 147.19,-3.61 143.11,1.66 139.03,6.93 135.33,10.34 131.63,13.75 126.88,16.88 122.12,20.00 117.31,22.07 112.49,24.14 105.94,26.31 99.39,28.48 92.34,29.50 85.30,30.53 80.65,31.06 76.00,31.59 70.69,31.78 65.38,31.98 58.60,31.23 51.81,30.49 47.45,29.65 43.09,28.80 37.75,27.51 32.42,26.23 27.99,24.56 23.56,22.89 18.62,20.74 13.68,18.60 9.90,16.41 6.12,14.23 0.83,11.76 -4.44,9.29 -5.49,8.63 -6.54,7.96 -7.40,7.06 -8.26,6.16 -8.87,5.08 -9.49,4.01 -9.83,2.81 -10.18,1.62 -10.22,0.38 -10.27,-0.86 -10.02,-2.07 -9.76,-3.29 -9.23,-4.41 -8.69,-5.53 -7.90,-6.49 -7.11,-7.45 -6.12,-8.20 -5.12,-8.94 -3.98,-9.42 -2.83,-9.91 -1.60,-10.10 -0.38,-10.30 0.85,-10.19 2.09,-10.09 3.27,-9.69 4.44,-9.29 4.44,-9.29 L 4.44,-9.29 Z"></path></g><g transform="translate(387.6114279276758 458.4636751482392) rotate(0 -10.344021879606316 9.94616367688468)" stroke="none"><path fill="#1e1e1e" d="M 8.86,4.92 Q 8.86,4.92 6.66,9.09 4.46,13.26 0.57,18.51 -3.30,23.77 -7.83,26.65 -12.36,29.52 -15.42,30.39 -18.48,31.25 -20.35,31.30 -22.22,31.36 -24.01,30.81 -25.81,30.27 -27.33,29.18 -28.85,28.09 -29.95,26.57 -31.04,25.05 -31.60,23.26 -32.15,21.47 -32.10,19.60 -32.05,17.73 -31.41,15.97 -30.77,14.21 -29.60,12.75 -28.43,11.29 -26.85,10.27 -25.28,9.26 -23.46,8.81 -21.64,8.35 -19.78,8.50 -17.91,8.65 -16.19,9.39 -14.47,10.12 -13.07,11.37 -11.67,12.62 -10.75,14.25 -9.83,15.88 -9.47,17.71 -9.11,19.55 -9.36,21.41 -9.61,23.26 -10.44,24.94 -11.27,26.62 -12.59,27.95 -13.91,29.28 -15.59,30.11 -17.27,30.95 -19.12,31.20 -20.98,31.46 -22.82,31.11 -24.66,30.76 -26.29,29.84 -27.92,28.92 -29.17,27.53 -30.43,26.14 -31.17,24.42 -31.91,22.70 -32.07,20.83 -32.22,18.97 -31.77,17.15 -31.32,15.33 -30.32,13.75 -29.31,12.17 -27.85,11.00 -26.40,9.82 -24.64,9.17 -22.88,8.52 -22.88,8.52 -22.89,8.52 -22.06,8.42 -21.23,8.33 -17.42,5.77 -13.61,3.21 -11.23,-0.85 -8.86,-4.92 -8.14,-5.91 -7.43,-6.90 -6.49,-7.69 -5.56,-8.48 -4.46,-9.02 -3.37,-9.56 -2.17,-9.83 -0.98,-10.09 0.23,-10.06 1.46,-10.03 2.64,-9.71 3.82,-9.39 4.89,-8.80 5.95,-8.20 6.85,-7.37 7.75,-6.54 8.42,-5.52 9.09,-4.49 9.49,-3.34 9.90,-2.19 10.02,-0.97 10.14,0.24 9.96,1.45 9.78,2.66 9.32,3.79 8.86,4.92 8.86,4.92 L 8.86,4.92 Z"></path></g><g transform="translate(526.0618573030376 438.57134779447006) rotate(0 20.687970911423065 6.365549124073482)" stroke="none"><path fill="#1e1e1e" d="M 4.28,-8.86 Q 4.28,-8.86 10.78,-5.39 17.28,-1.92 21.51,-0.37 25.73,1.17 30.54,1.54 35.35,1.91 38.58,1.92 41.81,1.94 43.52,2.29 45.23,2.64 46.74,3.52 48.25,4.40 49.40,5.72 50.55,7.03 51.22,8.65 51.89,10.26 52.00,12.01 52.12,13.75 51.68,15.44 51.23,17.13 50.27,18.59 49.31,20.05 47.93,21.12 46.56,22.20 44.91,22.78 43.26,23.36 41.51,23.38 39.77,23.41 38.10,22.87 36.44,22.33 35.04,21.30 33.63,20.26 32.63,18.82 31.63,17.39 31.14,15.71 30.65,14.04 30.72,12.29 30.79,10.55 31.42,8.91 32.04,7.28 33.16,5.94 34.27,4.59 35.76,3.67 37.24,2.75 38.94,2.35 40.64,1.95 42.38,2.12 44.12,2.28 45.72,2.99 47.31,3.71 48.60,4.89 49.88,6.08 50.72,7.61 51.56,9.14 51.86,10.86 52.17,12.58 51.91,14.31 51.65,16.04 50.85,17.59 50.05,19.15 48.80,20.37 47.55,21.58 45.97,22.34 44.40,23.09 42.66,23.31 40.93,23.52 40.93,23.52 40.93,23.52 36.91,23.04 32.88,22.57 25.68,20.74 18.48,18.91 13.86,16.82 9.24,14.73 2.48,11.80 -4.28,8.86 -5.28,8.22 -6.27,7.58 -7.09,6.72 -7.91,5.86 -8.49,4.83 -9.08,3.79 -9.40,2.65 -9.73,1.51 -9.77,0.32 -9.81,-0.85 -9.56,-2.02 -9.32,-3.18 -8.80,-4.25 -8.28,-5.32 -7.53,-6.23 -6.77,-7.14 -5.82,-7.85 -4.86,-8.56 -3.77,-9.02 -2.67,-9.47 -1.50,-9.66 -0.32,-9.84 0.85,-9.73 2.03,-9.63 3.15,-9.25 4.28,-8.86 4.28,-8.86 L 4.28,-8.86 Z"></path></g><g transform="translate(389.20278789077304 343.8840094582847) rotate(0 -12.333203621530515 30.63413458830769)" stroke="none"><path fill="#1e1e1e" d="M -1.45,10.17 Q -1.45,10.17 -6.26,9.56 -11.08,8.95 -15.41,8.88 -19.74,8.81 -24.30,9.12 -28.86,9.43 -33.25,10.53 -37.63,11.63 -36.61,16.41 -35.59,21.18 -35.34,25.80 -35.09,30.42 -33.84,34.77 -32.58,39.11 -30.61,43.10 -28.64,47.10 -23.29,48.12 -17.94,49.15 -12.81,49.00 -7.67,48.85 -2.11,47.34 3.44,45.83 4.54,41.41 5.65,37.00 2.86,33.37 0.07,29.73 -3.46,26.76 -7.00,23.80 -11.92,22.55 -16.83,21.30 -19.63,26.73 -22.43,32.15 -21.66,37.84 -20.88,43.53 -16.83,46.23 -12.78,48.93 -9.68,45.30 -6.58,41.68 -6.01,35.01 -5.44,28.33 -10.93,27.24 -16.42,26.15 -10.84,27.21 -5.25,28.26 -4.63,32.76 -4.00,37.26 -2.60,33.12 -1.20,28.98 -0.37,24.25 0.44,19.53 -4.86,17.47 -10.17,15.42 -10.76,19.97 -11.34,24.51 -9.78,30.71 -8.21,36.90 -3.97,38.73 0.27,40.57 4.92,36.21 9.57,31.85 10.03,25.43 10.49,19.01 7.97,14.03 5.44,9.05 -0.98,11.53 -7.41,14.00 -11.89,15.50 -16.38,16.99 -18.17,17.28 -19.96,17.56 -21.74,17.25 -23.53,16.95 -25.12,16.09 -26.72,15.23 -27.96,13.91 -29.19,12.59 -29.94,10.94 -30.70,9.29 -30.88,7.49 -31.06,5.68 -30.66,3.92 -30.26,2.15 -29.32,0.60 -28.38,-0.93 -26.99,-2.10 -25.60,-3.26 -23.91,-3.92 -22.23,-4.58 -20.42,-4.67 -18.61,-4.75 -16.86,-4.26 -15.12,-3.76 -13.63,-2.74 -12.14,-1.71 -11.05,-0.26 -9.96,1.18 -9.39,2.90 -8.83,4.62 -8.84,6.43 -8.85,8.24 -9.44,9.96 -10.03,11.67 -11.13,13.10 -12.24,14.54 -13.74,15.55 -15.25,16.55 -17.00,17.03 -18.75,17.50 -20.56,17.39 -22.36,17.28 -24.04,16.60 -25.72,15.92 -27.09,14.74 -28.47,13.55 -29.39,12.00 -30.32,10.44 -30.69,8.67 -31.07,6.89 -30.86,5.09 -30.66,3.30 -29.89,1.66 -29.11,0.02 -27.86,-1.28 -26.61,-2.59 -25.00,-3.43 -23.39,-4.26 -23.40,-4.26 -23.40,-4.26 -18.90,-5.73 -14.41,-7.20 -6.52,-9.74 1.35,-12.28 7.84,-11.52 14.32,-10.75 18.94,-7.50 23.56,-4.26 25.99,-0.18 28.42,3.89 30.81,10.78 33.19,17.66 33.28,25.12 33.37,32.58 31.09,38.83 28.81,45.07 23.88,51.35 18.94,57.63 12.85,60.41 6.75,63.18 0.05,63.27 -6.63,63.36 -13.11,60.75 -19.58,58.13 -24.81,52.89 -30.04,47.65 -32.97,40.67 -35.91,33.70 -36.31,26.71 -36.70,19.73 -35.36,13.12 -34.03,6.51 -30.46,0.65 -26.88,-5.19 -21.62,-7.89 -16.35,-10.59 -9.26,-10.07 -2.17,-9.55 5.10,-6.24 12.38,-2.93 18.44,4.82 24.49,12.59 25.15,16.97 25.80,21.36 25.27,25.73 24.74,30.10 23.21,35.11 21.69,40.12 18.03,46.74 14.36,53.35 9.02,56.80 3.68,60.25 -3.18,60.51 -10.05,60.77 -15.50,57.83 -20.95,54.88 -24.83,49.40 -28.70,43.91 -29.88,37.09 -31.06,30.28 -29.55,22.91 -28.03,15.55 -24.62,11.10 -21.21,6.65 -15.14,4.22 -9.06,1.79 -2.64,3.61 3.78,5.44 7.38,13.39 10.99,21.35 11.02,26.35 11.05,31.34 9.47,37.50 7.89,43.65 4.01,48.56 0.12,53.46 -4.87,55.66 -9.88,57.87 -14.91,57.89 -19.94,57.91 -24.98,56.07 -30.02,54.22 -33.92,50.55 -37.81,46.89 -39.91,42.18 -42.00,37.47 -42.40,33.14 -42.81,28.81 -41.90,23.57 -40.99,18.34 -35.45,11.96 -29.91,5.58 -24.75,3.42 -19.59,1.27 -13.73,0.88 -7.86,0.49 -2.88,1.66 2.09,2.84 7.51,6.43 12.92,10.01 15.60,15.25 18.27,20.49 18.69,24.93 19.12,29.37 18.87,35.44 18.63,41.51 16.89,48.20 15.16,54.89 11.49,59.78 7.83,64.67 2.62,68.00 -2.57,71.32 -9.34,72.81 -16.11,74.30 -23.35,72.50 -30.59,70.71 -35.98,66.09 -41.36,61.48 -44.05,56.38 -46.73,51.28 -48.51,44.79 -50.29,38.30 -50.27,33.04 -50.24,27.77 -49.16,21.44 -48.08,15.11 -46.12,11.18 -44.16,7.25 -41.31,3.85 -38.45,0.45 -34.09,-2.43 -29.72,-5.33 -25.47,-6.47 -21.22,-7.62 -14.01,-7.33 -6.81,-7.04 -2.51,-5.67 1.77,-4.30 5.95,-2.28 10.13,-0.25 14.12,3.21 18.10,6.68 21.38,9.52 24.65,12.35 27.36,16.81 30.08,21.27 32.56,26.87 35.05,32.47 36.15,39.62 37.26,46.78 35.95,51.14 34.65,55.50 30.71,60.41 26.77,65.33 22.81,67.77 18.84,70.21 12.52,72.72 6.20,75.24 0.98,76.38 -4.22,77.52 -9.31,77.77 -14.39,78.03 -18.99,77.92 -23.60,77.82 -30.91,76.55 -38.23,75.29 -43.25,71.38 -48.27,67.48 -51.60,63.21 -54.94,58.95 -57.11,53.56 -59.27,48.17 -60.51,43.02 -61.75,37.87 -62.44,32.77 -63.12,27.67 -62.88,21.82 -62.64,15.98 -61.38,10.73 -60.12,5.49 -57.75,1.34 -55.37,-2.79 -52.08,-6.16 -48.79,-9.52 -43.43,-11.30 -38.07,-13.08 -32.44,-13.56 -26.80,-14.03 -22.48,-13.62 -18.15,-13.21 -13.14,-12.45 -8.13,-11.69 -3.33,-10.93 1.45,-10.17 2.65,-9.85 3.84,-9.53 4.93,-8.93 6.01,-8.33 6.92,-7.49 7.83,-6.65 8.52,-5.61 9.20,-4.58 9.61,-3.41 10.03,-2.24 10.15,-1.01 10.27,0.21 10.10,1.44 9.92,2.67 9.46,3.81 9.00,4.96 8.27,5.97 7.54,6.97 6.60,7.78 5.66,8.58 4.55,9.13 3.44,9.68 2.23,9.95 1.02,10.23 -0.21,10.20 -1.45,10.17 -1.45,10.17 L -1.45,10.17 Z"></path></g><g transform="translate(532.4273700032163 354.2279949139963) rotate(0 -3.5806145528110846 22.677225501136718)" stroke="none"><path fill="#1e1e1e" d="M -0.96,10.60 Q -0.96,10.60 -5.99,10.16 -11.03,9.73 -14.22,14.76 -17.40,19.79 -16.11,24.99 -14.82,30.19 -10.22,32.63 -5.61,35.08 0.19,34.95 6.00,34.83 8.52,30.28 11.05,25.74 10.11,19.47 9.17,13.19 6.84,8.97 4.51,4.76 -0.28,3.36 -5.09,1.97 -6.96,8.73 -8.83,15.49 -6.94,20.36 -5.05,25.23 -1.41,27.74 2.21,30.26 6.88,29.65 11.55,29.04 6.42,26.64 1.28,24.23 0.16,19.66 -0.94,15.09 1.63,9.37 4.21,3.66 -2.71,4.87 -9.63,6.08 -13.65,8.07 -17.66,10.05 -18.02,15.81 -18.37,21.57 -18.59,27.45 -18.82,33.34 -15.63,37.01 -12.45,40.67 -6.76,42.43 -1.07,44.19 0.86,40.19 2.80,36.18 0.48,31.11 -1.82,26.03 -4.42,21.71 -7.01,17.39 -7.70,15.34 -8.39,13.29 -8.39,11.13 -8.39,8.98 -7.70,6.93 -7.01,4.88 -5.71,3.16 -4.40,1.44 -2.61,0.23 -0.82,-0.97 1.25,-1.55 3.33,-2.12 5.48,-2.01 7.64,-1.89 9.64,-1.09 11.65,-0.29 13.30,1.10 14.94,2.50 16.06,4.35 17.17,6.20 17.63,8.30 18.10,10.41 17.86,12.56 17.63,14.71 16.72,16.67 15.81,18.63 14.33,20.19 12.84,21.76 10.94,22.77 9.03,23.78 6.90,24.13 4.77,24.48 2.64,24.13 0.51,23.78 -1.39,22.77 -3.30,21.76 -4.78,20.19 -6.27,18.62 -7.18,16.66 -8.08,14.70 -8.31,12.56 -8.55,10.41 -8.08,8.30 -7.62,6.19 -6.50,4.34 -5.39,2.49 -3.74,1.09 -2.10,-0.29 -0.09,-1.09 1.90,-1.89 4.06,-2.01 6.22,-2.12 8.30,-1.54 10.38,-0.97 12.16,0.24 13.95,1.45 15.26,3.17 16.56,4.89 16.56,4.88 16.56,4.88 18.82,9.19 21.08,13.49 23.80,19.94 26.52,26.40 27.54,31.78 28.55,37.16 26.09,45.86 23.63,54.56 20.38,58.04 17.12,61.51 12.97,63.80 8.83,66.10 2.67,67.47 -3.48,68.84 -8.71,68.00 -13.94,67.17 -18.90,64.98 -23.86,62.79 -27.88,59.35 -31.90,55.92 -35.19,51.55 -38.48,47.18 -40.98,41.09 -43.48,35.00 -43.16,26.58 -42.84,18.17 -41.97,10.85 -41.11,3.53 -37.89,-2.72 -34.66,-8.97 -28.24,-12.93 -21.83,-16.89 -17.60,-18.05 -13.37,-19.21 -7.81,-20.06 -2.25,-20.91 3.75,-20.94 9.76,-20.97 15.53,-19.45 21.30,-17.93 25.66,-13.39 30.01,-8.84 30.22,-0.52 30.44,7.80 28.80,12.13 27.15,16.46 23.87,22.09 20.58,27.73 14.92,33.08 9.25,38.43 2.43,40.12 -4.39,41.82 -10.77,39.02 -17.16,36.22 -19.82,29.19 -22.49,22.17 -20.80,16.70 -19.12,11.24 -12.96,5.47 -6.80,-0.28 -1.68,-1.44 3.42,-2.59 10.07,-0.08 16.71,2.43 20.58,5.30 24.44,8.16 28.57,12.76 32.69,17.35 35.02,23.34 37.36,29.33 34.95,37.42 32.53,45.52 25.86,50.12 19.20,54.73 14.20,55.89 9.20,57.04 3.68,56.86 -1.83,56.68 -6.36,55.30 -10.89,53.93 -15.03,51.46 -19.16,48.99 -22.45,46.05 -25.74,43.10 -29.13,38.86 -32.51,34.61 -34.34,29.74 -36.16,24.87 -36.13,18.75 -36.09,12.63 -35.72,8.34 -35.35,4.05 -34.53,-0.20 -33.71,-4.47 -31.10,-9.23 -28.49,-13.99 -22.51,-18.43 -16.53,-22.86 -11.43,-24.03 -6.33,-25.19 -0.07,-24.19 6.19,-23.20 13.28,-19.80 20.36,-16.40 25.18,-10.78 30.01,-5.17 32.36,1.06 34.72,7.30 35.74,11.90 36.77,16.49 37.28,21.86 37.79,27.23 36.43,34.63 35.07,42.03 31.85,46.55 28.63,51.07 24.67,53.86 20.71,56.66 14.57,58.36 8.43,60.05 3.65,60.41 -1.12,60.76 -5.85,60.39 -10.58,60.02 -15.54,58.75 -20.50,57.48 -25.38,54.33 -30.27,51.19 -34.06,45.05 -37.85,38.91 -39.21,34.85 -40.57,30.80 -41.06,26.25 -41.54,21.70 -40.87,17.48 -40.20,13.26 -38.63,8.67 -37.06,4.09 -31.69,-2.17 -26.31,-8.44 -17.70,-10.00 -9.09,-11.56 -4.06,-11.08 0.96,-10.60 2.21,-10.33 3.47,-10.06 4.62,-9.50 5.78,-8.94 6.76,-8.12 7.75,-7.29 8.51,-6.26 9.27,-5.23 9.76,-4.04 10.25,-2.85 10.45,-1.58 10.64,-0.32 10.52,0.95 10.41,2.23 9.99,3.44 9.57,4.66 8.87,5.74 8.18,6.81 7.24,7.69 6.31,8.57 5.19,9.20 4.07,9.84 2.83,10.18 1.60,10.52 0.31,10.56 -0.96,10.60 -0.96,10.60 L -0.96,10.60 Z"></path></g><g stroke-linecap="round" transform="translate(335.6851799810182 344.7159319336947) rotate(0 39.19323813502069 30.942030106595325)"><path d="M35.4 0.3 C42.68 -0.32, 54.1 2.58, 60.86 5.59 C67.63 8.61, 73.13 13.08, 75.98 18.39 C78.83 23.71, 79.87 31.54, 77.95 37.47 C76.04 43.4, 70.48 50, 64.48 53.98 C58.47 57.95, 49.43 60.89, 41.92 61.31 C34.4 61.74, 25.81 59.67, 19.39 56.54 C12.98 53.4, 6.59 47.89, 3.45 42.5 C0.3 37.11, -1.34 29.99, 0.53 24.21 C2.4 18.43, 8.02 11.72, 14.68 7.8 C21.34 3.88, 35.71 1.86, 40.51 0.7 C45.31 -0.45, 43.69 0.43, 43.47 0.85 M40.88 -0.47 C48.08 -0.29, 57.85 3.03, 63.71 6.86 C69.57 10.69, 73.9 16.33, 76.05 22.5 C78.19 28.67, 79.42 37.83, 76.57 43.88 C73.72 49.93, 65.52 55.6, 58.96 58.79 C52.4 61.98, 44.55 63.91, 37.21 63.01 C29.88 62.11, 20.89 57.65, 14.95 53.37 C9.01 49.09, 3.8 42.92, 1.57 37.3 C-0.66 31.69, -1.05 25.34, 1.57 19.67 C4.19 14, 10.59 6.39, 17.3 3.29 C24.01 0.18, 37.48 1.6, 41.85 1.05 C46.22 0.5, 43.54 -0.44, 43.5 -0.01" stroke="none" stroke-width="0" fill="#ffffff"></path><path d="M38.45 0.92 C45.71 0.43, 55.51 1.81, 61.83 5.09 C68.15 8.37, 73.88 14.9, 76.38 20.62 C78.88 26.35, 79.17 33.52, 76.84 39.42 C74.5 45.33, 68.4 52.36, 62.37 56.07 C56.34 59.77, 48.08 61.47, 40.66 61.66 C33.23 61.85, 24.09 60.55, 17.82 57.21 C11.56 53.87, 5.84 47.5, 3.07 41.64 C0.29 35.79, -0.69 27.9, 1.2 22.08 C3.08 16.27, 8.02 10.56, 14.4 6.74 C20.78 2.91, 35.17 0.21, 39.47 -0.87 C43.77 -1.95, 40.37 -0.31, 40.18 0.28 M56.82 2.94 C63.26 5.4, 70.89 12.48, 74.28 18.23 C77.68 23.99, 78.5 31.64, 77.18 37.45 C75.87 43.26, 71.92 49.06, 66.41 53.1 C60.9 57.13, 51.91 61.01, 44.11 61.68 C36.31 62.35, 26.16 60.1, 19.59 57.11 C13.02 54.12, 7.98 49.3, 4.71 43.76 C1.45 38.23, -1.18 29.94, 0.02 23.89 C1.22 17.85, 6.45 11.4, 11.9 7.5 C17.35 3.6, 24.85 0.88, 32.72 0.48 C40.6 0.07, 54.79 4.27, 59.14 5.05 C63.5 5.83, 59.19 4.92, 58.85 5.16" stroke="#1e1e1e" stroke-width="4" fill="none"></path></g><g stroke-linecap="round" transform="translate(491.0829521669373 344.7159319336947) rotate(0 39.19323813502075 30.942030106595325)"><path d="M32.72 0.87 C39.86 -0.45, 49.86 1.46, 56.62 4.1 C63.38 6.75, 69.76 11.36, 73.27 16.74 C76.78 22.13, 78.76 30.37, 77.66 36.44 C76.57 42.51, 72.18 48.91, 66.72 53.16 C61.26 57.41, 52.41 60.92, 44.91 61.93 C37.42 62.93, 28.62 62.17, 21.73 59.19 C14.83 56.21, 6.96 49.63, 3.55 44.06 C0.15 38.49, 0.06 31.51, 1.28 25.79 C2.49 20.07, 4.57 14, 10.84 9.73 C17.1 5.47, 33.32 1.64, 38.84 0.19 C44.36 -1.27, 43.89 0.4, 43.95 1.02 M57.89 3.48 C64.78 5.75, 71.38 11.7, 74.75 17.21 C78.13 22.71, 79.4 30.42, 78.15 36.5 C76.89 42.58, 72.58 49.78, 67.25 53.7 C61.92 57.62, 53.67 59.19, 46.15 60.02 C38.63 60.85, 28.92 61.4, 22.13 58.66 C15.35 55.93, 9.18 49.26, 5.43 43.64 C1.67 38.01, -1.32 30.51, -0.38 24.91 C0.56 19.31, 5.46 14.19, 11.08 10.05 C16.69 5.9, 25.58 1.14, 33.31 0.02 C41.05 -1.1, 53.37 2.45, 57.48 3.35 C61.6 4.24, 58.5 4.99, 58.03 5.4" stroke="none" stroke-width="0" fill="#ffffff"></path><path d="M41.37 -0.28 C48.6 -0.14, 58.19 3.19, 64.04 7.05 C69.89 10.92, 74.45 16.84, 76.47 22.92 C78.49 29, 79.05 37.63, 76.17 43.53 C73.29 49.43, 65.73 55.13, 59.18 58.31 C52.62 61.49, 44.27 63.37, 36.83 62.6 C29.38 61.84, 20.44 57.9, 14.53 53.73 C8.63 49.55, 3.49 43.28, 1.41 37.57 C-0.67 31.86, -0.68 25.11, 2.05 19.46 C4.78 13.82, 10.39 6.74, 17.79 3.7 C25.19 0.66, 40.8 1.57, 46.46 1.22 C52.11 0.86, 51.83 1.13, 51.71 1.58 M42.87 0.35 C50.29 0.46, 59.1 2.98, 64.73 6.99 C70.35 11, 75.01 18.27, 76.61 24.43 C78.21 30.58, 77.38 38.47, 74.33 43.92 C71.28 49.38, 64.67 54.38, 58.33 57.15 C51.99 59.92, 44.07 61.24, 36.27 60.57 C28.48 59.89, 17.47 56.81, 11.56 53.09 C5.64 49.37, 2.13 43.98, 0.76 38.24 C-0.6 32.51, 0.02 24.33, 3.35 18.67 C6.69 13, 14.38 7.53, 20.79 4.25 C27.2 0.97, 38.03 -0.7, 41.81 -1.03 C45.59 -1.36, 43.12 1.51, 43.47 2.28" stroke="#1e1e1e" stroke-width="4" fill="none"></path></g><g transform="translate(10 255.41814277384992) rotate(0 70.7592444968073 62.25020857906986)" stroke="none"><path fill="#1e1e1e" d="M 5.13,-6.98 Q 5.13,-6.98 17.48,2.64 29.83,12.28 38.95,19.91 48.08,27.55 55.66,33.64 63.24,39.73 69.46,44.95 75.67,50.17 81.43,54.85 87.18,59.53 91.07,62.71 94.97,65.88 100.99,70.51 107.01,75.14 112.93,80.18 118.86,85.22 121.94,88.39 125.03,91.56 130.85,97.43 136.68,103.31 140.08,106.85 143.48,110.39 147.38,114.32 151.27,118.26 152.01,119.98 152.75,121.70 152.90,123.57 153.05,125.44 152.60,127.26 152.15,129.07 151.14,130.65 150.13,132.23 148.67,133.40 147.21,134.58 145.45,135.22 143.69,135.87 141.82,135.92 139.95,135.97 138.16,135.42 136.37,134.87 134.85,133.77 133.32,132.68 132.23,131.16 131.14,129.64 130.59,127.85 130.04,126.05 130.09,124.18 130.14,122.31 130.79,120.55 131.44,118.79 132.61,117.33 133.79,115.88 135.36,114.87 136.94,113.86 138.76,113.41 140.58,112.96 142.44,113.11 144.31,113.26 146.03,114.00 147.75,114.74 149.15,115.99 150.54,117.25 151.46,118.88 152.38,120.51 152.73,122.35 153.09,124.19 152.83,126.04 152.58,127.90 151.75,129.58 150.91,131.25 149.59,132.58 148.26,133.90 146.59,134.73 144.91,135.56 143.05,135.82 141.19,136.07 139.36,135.71 137.52,135.36 135.89,134.44 134.26,133.52 133.01,132.12 131.76,130.73 131.76,130.73 131.76,130.73 131.22,129.99 130.68,129.24 127.37,125.55 124.06,121.86 120.11,116.80 116.16,111.75 110.47,105.19 104.78,98.64 99.88,93.24 94.98,87.84 89.84,82.23 84.70,76.61 81.69,73.18 78.68,69.75 73.03,64.95 67.39,60.15 61.32,55.18 55.25,50.22 47.27,44.45 39.29,38.67 29.96,31.73 20.63,24.79 7.75,15.89 -5.13,6.98 -5.89,6.26 -6.65,5.55 -7.22,4.67 -7.79,3.80 -8.13,2.81 -8.47,1.82 -8.56,0.78 -8.66,-0.25 -8.50,-1.28 -8.35,-2.32 -7.95,-3.28 -7.55,-4.25 -6.93,-5.09 -6.31,-5.93 -5.51,-6.60 -4.71,-7.27 -3.77,-7.73 -2.83,-8.19 -1.81,-8.41 -0.79,-8.63 0.25,-8.60 1.29,-8.57 2.30,-8.29 3.31,-8.01 4.22,-7.49 5.13,-6.98 5.13,-6.98 L 5.13,-6.98 Z"></path></g><g transform="translate(81.65493788305287 302.88950273273963) rotate(0 42.54511808677279 -100.76473717869487)" stroke="none"><path fill="#1e1e1e" d="M -6.67,-3.74 Q -6.67,-3.74 -0.47,-14.14 5.72,-24.54 12.93,-40.95 20.13,-57.36 26.62,-74.61 33.11,-91.85 40.60,-110.62 48.10,-129.39 54.67,-145.10 61.25,-160.81 65.88,-171.36 70.52,-181.91 72.31,-187.70 74.11,-193.48 76.13,-199.02 78.14,-204.56 78.81,-205.59 79.47,-206.62 80.43,-207.38 81.39,-208.14 82.55,-208.56 83.70,-208.97 84.92,-209.00 86.15,-209.03 87.32,-208.66 88.49,-208.29 89.48,-207.57 90.47,-206.85 91.18,-205.85 91.89,-204.85 92.25,-203.68 92.60,-202.51 92.56,-201.28 92.52,-200.05 92.09,-198.91 91.66,-197.76 90.89,-196.81 90.11,-195.86 89.08,-195.20 88.04,-194.55 86.85,-194.26 85.66,-193.97 84.44,-194.08 83.22,-194.18 82.09,-194.67 80.97,-195.16 80.06,-195.99 79.15,-196.81 78.56,-197.88 77.96,-198.95 77.73,-200.16 77.51,-201.36 77.68,-202.58 77.85,-203.79 78.41,-204.88 78.96,-205.98 79.83,-206.84 80.70,-207.70 81.80,-208.24 82.90,-208.78 84.12,-208.94 85.33,-209.10 86.54,-208.86 87.74,-208.62 88.80,-208.01 89.87,-207.40 90.68,-206.49 91.49,-205.57 91.97,-204.44 92.45,-203.31 92.54,-202.09 92.63,-200.87 92.33,-199.68 92.03,-198.49 92.03,-198.49 92.03,-198.49 89.01,-193.72 86.00,-188.94 83.41,-183.20 80.82,-177.46 76.35,-166.94 71.87,-156.43 65.51,-140.75 59.14,-125.06 51.94,-106.33 44.73,-87.60 38.45,-69.93 32.16,-52.25 25.06,-34.97 17.96,-17.68 12.32,-6.97 6.67,3.74 6.13,4.49 5.58,5.23 4.88,5.82 4.17,6.42 3.34,6.82 2.51,7.23 1.61,7.42 0.71,7.62 -0.21,7.59 -1.13,7.57 -2.02,7.32 -2.91,7.08 -3.72,6.63 -4.52,6.17 -5.19,5.54 -5.87,4.91 -6.37,4.14 -6.87,3.36 -7.18,2.49 -7.48,1.62 -7.57,0.70 -7.65,-0.21 -7.51,-1.12 -7.38,-2.04 -7.03,-2.89 -6.67,-3.74 -6.67,-3.74 L -6.67,-3.74 Z"></path></g><g transform="translate(50.30589487147796 96.88162294603671) rotate(0 86.8816024453985 95.39061786249783)" stroke="none"><path fill="#1e1e1e" d="M 4.96,-5.25 Q 4.96,-5.25 14.05,3.69 23.14,12.64 37.53,26.83 51.92,41.02 64.77,54.91 77.63,68.80 90.03,82.99 102.43,97.18 114.90,112.01 127.37,126.83 137.48,138.22 147.59,149.61 154.77,158.15 161.96,166.68 166.33,171.34 170.70,176.00 175.38,181.34 180.06,186.67 180.55,187.79 181.05,188.90 181.15,190.11 181.26,191.32 180.98,192.51 180.69,193.69 180.05,194.72 179.40,195.75 178.46,196.53 177.52,197.30 176.38,197.73 175.24,198.15 174.02,198.20 172.80,198.24 171.64,197.89 170.47,197.54 169.48,196.84 168.48,196.14 167.76,195.16 167.04,194.17 166.68,193.01 166.31,191.85 166.33,190.64 166.36,189.42 166.77,188.27 167.18,187.13 167.93,186.17 168.69,185.22 169.71,184.55 170.73,183.89 171.91,183.58 173.09,183.28 174.30,183.37 175.51,183.46 176.64,183.93 177.76,184.40 178.67,185.21 179.58,186.01 180.19,187.07 180.80,188.12 181.04,189.32 181.28,190.51 181.12,191.72 180.97,192.93 180.44,194.02 179.90,195.12 179.05,195.98 178.20,196.85 177.11,197.40 176.02,197.95 174.82,198.13 173.61,198.30 172.42,198.08 171.22,197.86 170.16,197.27 169.09,196.68 168.27,195.78 167.45,194.88 167.45,194.88 167.45,194.88 164.32,189.42 161.18,183.95 157.40,178.85 153.62,173.75 146.47,165.38 139.32,157.00 129.03,145.58 118.74,134.15 106.23,119.51 93.72,104.88 81.29,90.96 68.86,77.04 56.00,63.56 43.15,50.08 28.54,36.23 13.94,22.38 4.48,13.81 -4.96,5.25 -5.52,4.58 -6.08,3.91 -6.46,3.13 -6.84,2.34 -7.02,1.49 -7.20,0.64 -7.17,-0.22 -7.14,-1.10 -6.91,-1.93 -6.67,-2.77 -6.24,-3.53 -5.81,-4.29 -5.22,-4.93 -4.62,-5.56 -3.88,-6.03 -3.15,-6.50 -2.33,-6.79 -1.50,-7.07 -0.63,-7.15 0.23,-7.22 1.09,-7.09 1.95,-6.96 2.75,-6.62 3.56,-6.29 4.26,-5.77 4.96,-5.25 4.96,-5.25 L 4.96,-5.25 Z"></path></g><g transform="translate(249.14830957076902 173.91063914401025) rotate(0 136.59222662085955 -32.69255233998604)" stroke="none"><path fill="#1e1e1e" d="M -7.34,-2.20 Q -7.34,-2.20 -1.62,-20.13 4.08,-38.05 6.51,-52.92 8.94,-67.78 9.55,-76.27 10.16,-84.76 5.53,-86.22 0.91,-87.68 -1.94,-83.22 -4.81,-78.77 -7.43,-72.38 -10.06,-65.99 -10.10,-54.04 -10.14,-42.10 -5.85,-27.29 -1.56,-12.49 3.65,-1.38 8.87,9.72 20.11,21.39 31.36,33.07 44.29,39.64 57.22,46.20 69.36,46.69 81.51,47.18 93.22,41.84 104.94,36.49 114.03,27.45 123.12,18.42 130.46,4.93 137.80,-8.54 141.91,-25.73 146.02,-42.92 146.26,-57.65 146.50,-72.38 143.86,-84.73 141.23,-97.08 136.66,-106.92 132.10,-116.77 127.48,-123.02 122.86,-129.28 118.92,-131.78 114.98,-134.29 114.33,-139.26 113.67,-144.23 118.80,-144.11 123.94,-143.98 132.73,-139.12 141.53,-134.26 147.88,-129.97 154.22,-125.68 161.31,-120.43 168.39,-115.19 175.81,-110.97 183.23,-106.76 189.96,-104.94 196.69,-103.11 204.57,-102.87 212.46,-102.62 218.55,-105.31 224.64,-108.01 228.38,-112.41 232.12,-116.82 233.84,-123.13 235.55,-129.44 235.11,-135.97 234.67,-142.51 231.01,-147.66 227.34,-152.81 220.66,-150.30 213.98,-147.79 212.25,-139.67 210.51,-131.54 212.26,-117.67 214.00,-103.80 218.62,-87.08 223.24,-70.35 227.94,-55.92 232.64,-41.49 236.34,-31.53 240.05,-21.56 244.11,-12.24 248.16,-2.92 251.91,5.17 255.66,13.28 260.57,23.42 265.48,33.57 269.85,42.24 274.23,50.92 278.13,58.47 282.03,66.02 285.31,71.02 288.59,76.01 291.24,79.84 293.90,83.66 296.78,87.83 299.66,92.01 300.24,92.27 300.82,92.53 301.61,93.67 302.41,94.81 302.80,96.14 303.19,97.47 303.13,98.86 303.08,100.25 302.58,101.54 302.09,102.84 301.20,103.91 300.32,104.98 299.14,105.71 297.96,106.44 296.61,106.76 295.26,107.08 293.88,106.95 292.50,106.82 291.23,106.25 289.96,105.69 288.94,104.75 287.92,103.81 287.25,102.59 286.59,101.37 286.34,100.01 286.10,98.64 286.30,97.27 286.51,95.90 287.14,94.66 287.78,93.43 288.77,92.46 289.76,91.49 291.01,90.89 292.27,90.29 293.64,90.12 295.02,89.95 296.38,90.23 297.74,90.51 298.94,91.21 300.14,91.91 301.05,92.95 301.96,94.00 302.49,95.28 303.03,96.56 303.12,97.94 303.22,99.33 302.86,100.67 302.51,102.01 301.75,103.17 300.98,104.33 299.89,105.19 298.80,106.04 297.49,106.50 296.18,106.96 294.79,106.98 293.41,107.00 292.09,106.58 290.76,106.15 289.65,105.33 288.53,104.51 288.53,104.51 288.53,104.51 286.90,102.50 285.27,100.50 283.39,95.59 281.51,90.68 279.59,86.42 277.67,82.15 275.02,76.61 272.37,71.07 268.38,63.50 264.39,55.94 259.88,47.24 255.38,38.53 250.31,28.39 245.24,18.24 241.27,10.10 237.29,1.97 232.87,-7.52 228.44,-17.02 224.30,-27.11 220.17,-37.20 214.90,-51.77 209.64,-66.34 204.14,-83.92 198.64,-101.51 195.97,-117.47 193.29,-133.44 194.73,-142.62 196.17,-151.80 201.21,-157.49 206.25,-163.18 213.43,-165.70 220.62,-168.23 228.31,-166.93 236.01,-165.63 240.69,-160.51 245.37,-155.39 246.71,-149.24 248.05,-143.10 248.18,-134.42 248.32,-125.74 245.32,-116.85 242.32,-107.95 236.19,-102.03 230.06,-96.11 221.41,-92.69 212.76,-89.26 202.93,-89.16 193.09,-89.06 184.79,-91.21 176.48,-93.37 167.91,-97.30 159.34,-101.23 151.84,-105.46 144.33,-109.69 138.15,-113.15 131.97,-116.61 126.10,-119.62 120.23,-122.63 114.22,-126.53 108.20,-130.43 104.33,-135.37 100.46,-140.31 106.03,-145.49 111.60,-150.66 117.26,-147.39 122.91,-144.12 127.22,-139.88 131.52,-135.63 136.61,-128.41 141.70,-121.20 146.64,-110.25 151.59,-99.31 154.36,-85.77 157.14,-72.23 156.78,-56.34 156.42,-40.45 151.84,-21.94 147.27,-3.43 139.03,11.32 130.79,26.09 120.17,36.26 109.56,46.43 95.51,52.35 81.47,58.26 66.94,57.39 52.41,56.51 37.71,48.94 23.02,41.38 10.46,28.30 -2.08,15.22 -8.03,3.21 -13.97,-8.78 -18.98,-25.34 -23.99,-41.90 -24.11,-56.49 -24.22,-71.08 -20.96,-79.86 -17.69,-88.64 -11.55,-95.65 -5.41,-102.66 1.65,-103.84 8.72,-105.02 13.90,-101.52 19.09,-98.02 20.80,-91.16 22.50,-84.30 22.19,-75.08 21.88,-65.86 19.71,-49.95 17.54,-34.04 12.44,-15.92 7.34,2.20 6.97,3.05 6.60,3.89 6.04,4.63 5.48,5.36 4.75,5.94 4.03,6.52 3.19,6.90 2.35,7.29 1.45,7.47 0.54,7.65 -0.37,7.60 -1.30,7.55 -2.18,7.29 -3.07,7.02 -3.86,6.55 -4.66,6.08 -5.32,5.44 -5.98,4.79 -6.47,4.00 -6.96,3.22 -7.24,2.34 -7.52,1.46 -7.59,0.53 -7.66,-0.38 -7.50,-1.29 -7.34,-2.20 -7.34,-2.20 L -7.34,-2.20 Z"></path></g><g transform="translate(321.42309346239915 787.2317136805691) rotate(0 304.8816441674958 -122.24022472245849)" stroke="none"><path fill="#1e1e1e" d="M -7.28,0.66 Q -7.28,0.66 -8.65,-17.55 -10.03,-35.77 -10.54,-49.44 -11.05,-63.12 -9.07,-73.47 -7.09,-83.82 3.64,-91.49 14.38,-99.15 29.53,-101.34 44.67,-103.53 66.00,-102.64 87.33,-101.74 98.65,-101.33 109.96,-100.92 115.18,-101.07 120.39,-101.22 121.17,-110.87 121.94,-120.52 119.95,-130.65 117.95,-140.78 116.09,-147.72 114.23,-154.66 110.75,-158.75 107.28,-162.85 106.93,-163.75 106.59,-164.66 106.48,-165.62 106.36,-166.58 106.48,-167.54 106.59,-168.50 106.94,-169.40 107.28,-170.31 107.83,-171.10 108.38,-171.90 109.11,-172.54 109.83,-173.18 110.69,-173.63 111.55,-174.08 112.49,-174.31 113.43,-174.54 114.39,-174.54 115.36,-174.54 116.30,-174.30 117.24,-174.07 118.10,-173.62 118.95,-173.17 119.68,-172.53 120.40,-171.89 120.95,-171.09 121.50,-170.29 119.84,-166.01 118.18,-161.73 122.62,-148.89 127.05,-136.06 144.82,-107.36 162.59,-78.67 184.23,-46.31 205.87,-13.96 224.97,14.76 244.08,43.48 256.34,63.22 268.61,82.97 273.99,95.37 279.37,107.77 276.22,121.40 273.06,135.02 259.30,142.76 245.53,150.51 231.30,151.77 217.07,153.03 203.53,143.91 189.99,134.79 182.45,120.25 174.91,105.70 173.44,84.04 171.97,62.38 178.17,40.36 184.36,18.34 191.20,2.41 198.04,-13.51 204.15,-30.72 210.25,-47.94 212.75,-67.19 215.24,-86.45 213.87,-102.58 212.49,-118.71 209.49,-131.20 206.49,-143.68 204.02,-149.90 201.55,-156.12 201.47,-156.84 201.39,-157.55 201.48,-158.27 201.57,-158.98 201.83,-159.65 202.09,-160.32 202.51,-160.91 202.92,-161.50 203.46,-161.97 204.00,-162.44 204.64,-162.77 205.28,-163.10 205.98,-163.27 206.68,-163.43 207.40,-163.43 208.12,-163.42 208.82,-163.24 209.52,-163.07 210.15,-162.73 210.79,-162.39 211.32,-161.91 211.85,-161.42 212.26,-160.83 212.66,-160.23 212.91,-159.56 213.16,-158.88 230.54,-136.92 247.92,-114.96 267.15,-92.08 286.38,-69.20 301.98,-51.18 317.58,-33.17 325.03,-24.66 332.48,-16.15 332.85,-15.60 333.22,-15.05 333.45,-14.42 333.68,-13.80 333.76,-13.14 333.83,-12.48 333.75,-11.82 333.66,-11.16 333.42,-10.54 333.18,-9.93 332.80,-9.38 332.41,-8.84 331.91,-8.40 331.41,-7.97 330.82,-7.66 330.23,-7.36 329.58,-7.21 328.94,-7.05 328.27,-7.06 327.61,-7.07 326.97,-7.23 326.32,-7.39 325.74,-7.71 325.15,-8.02 324.66,-8.47 324.17,-8.91 323.36,-28.60 322.56,-48.28 320.90,-77.25 319.23,-106.21 318.53,-124.43 317.82,-142.64 320.23,-153.46 322.63,-164.28 331.69,-165.88 340.75,-167.49 355.35,-162.91 369.96,-158.33 381.89,-152.12 393.82,-145.91 399.84,-142.76 405.85,-139.60 410.19,-138.55 414.52,-137.50 415.18,-136.99 415.84,-136.48 416.36,-135.83 416.88,-135.18 417.23,-134.43 417.58,-133.67 417.74,-132.86 417.89,-132.04 417.85,-131.21 417.81,-130.38 417.57,-129.58 417.33,-128.78 416.90,-128.07 416.48,-127.35 415.90,-126.75 415.31,-126.16 414.61,-125.72 413.90,-125.29 413.10,-125.03 412.31,-124.78 411.48,-124.72 410.65,-124.66 409.83,-124.80 409.01,-124.95 408.25,-125.28 407.49,-125.61 408.12,-140.79 408.76,-155.97 408.71,-176.26 408.67,-196.54 405.44,-212.23 402.21,-227.92 397.76,-236.63 393.32,-245.35 388.33,-250.27 383.35,-255.20 384.02,-244.28 384.70,-233.37 392.16,-217.10 399.62,-200.83 410.75,-186.58 421.89,-172.33 429.44,-164.78 436.99,-157.23 441.46,-156.15 445.93,-155.06 453.05,-168.86 460.17,-182.65 463.42,-203.57 466.67,-224.49 464.06,-252.96 461.44,-281.42 457.11,-300.05 452.78,-318.68 449.37,-328.10 445.95,-337.53 443.15,-341.50 440.35,-345.47 440.18,-346.22 440.00,-346.97 440.01,-347.75 440.03,-348.52 440.22,-349.27 440.42,-350.02 440.78,-350.70 441.15,-351.38 441.67,-351.95 442.19,-352.52 442.84,-352.95 443.48,-353.38 444.21,-353.64 444.93,-353.91 445.70,-353.99 446.47,-354.07 447.24,-353.97 448.00,-353.87 448.72,-353.58 449.44,-353.30 450.07,-352.85 450.70,-352.40 451.21,-351.82 451.71,-351.23 452.06,-350.54 452.41,-349.85 453.28,-337.53 454.14,-325.22 460.39,-313.08 466.64,-300.95 472.25,-296.42 477.86,-291.89 483.31,-294.73 488.76,-297.58 491.86,-314.40 494.95,-331.22 496.63,-348.46 498.30,-365.70 498.21,-374.54 498.12,-383.37 497.57,-388.07 497.02,-392.76 497.11,-393.53 497.19,-394.29 497.45,-395.02 497.72,-395.74 498.15,-396.38 498.58,-397.01 499.15,-397.53 499.72,-398.05 500.40,-398.41 501.07,-398.78 501.82,-398.97 502.56,-399.16 503.33,-399.17 504.10,-399.18 504.85,-399.01 505.60,-398.83 506.28,-398.48 506.97,-398.13 507.55,-397.63 508.13,-397.13 508.58,-396.50 509.02,-395.87 509.30,-395.15 509.58,-394.44 509.68,-393.67 509.78,-392.91 507.77,-388.73 505.75,-384.55 508.50,-365.02 511.25,-345.48 520.35,-321.45 529.45,-297.43 538.03,-282.46 546.61,-267.49 556.31,-261.01 566.01,-254.54 574.49,-256.92 582.97,-259.30 590.45,-275.18 597.93,-291.07 601.44,-302.74 604.95,-314.41 606.09,-320.38 607.24,-326.36 607.58,-332.18 607.92,-338.01 608.36,-339.18 608.79,-340.35 609.58,-341.33 610.37,-342.30 611.43,-342.97 612.49,-343.64 613.70,-343.93 614.92,-344.23 616.17,-344.12 617.41,-344.01 618.56,-343.51 619.71,-343.01 620.64,-342.17 621.56,-341.33 622.17,-340.24 622.78,-339.15 623.01,-337.92 623.25,-336.69 623.07,-335.45 622.90,-334.21 622.33,-333.09 621.77,-331.97 620.88,-331.09 619.99,-330.21 618.87,-329.66 617.75,-329.11 616.51,-328.95 615.26,-328.78 614.04,-329.02 612.81,-329.27 611.72,-329.89 610.64,-330.51 609.80,-331.44 608.97,-332.38 608.48,-333.53 607.99,-334.68 607.90,-335.93 607.80,-337.18 608.11,-338.39 608.42,-339.61 609.10,-340.66 609.78,-341.71 610.76,-342.49 611.74,-343.27 612.91,-343.69 614.09,-344.12 615.34,-344.15 616.59,-344.18 617.79,-343.80 618.98,-343.43 619.99,-342.69 621.01,-341.96 621.73,-340.94 622.46,-339.92 622.82,-338.72 623.18,-337.52 623.14,-336.27 623.10,-335.02 623.10,-335.02 623.10,-335.02 621.14,-329.14 619.18,-323.25 617.21,-317.27 615.23,-311.30 611.41,-298.73 607.59,-286.16 597.82,-268.38 588.05,-250.59 575.40,-247.68 562.74,-244.76 549.95,-253.08 537.16,-261.39 527.85,-277.33 518.54,-293.26 508.90,-318.59 499.25,-343.92 498.14,-368.34 497.02,-392.76 497.11,-393.53 497.19,-394.29 497.45,-395.02 497.72,-395.74 498.15,-396.38 498.58,-397.01 499.15,-397.53 499.72,-398.05 500.39,-398.41 501.07,-398.78 501.82,-398.97 502.56,-399.16 503.33,-399.17 504.10,-399.18 504.85,-399.01 505.60,-398.83 506.28,-398.48 506.97,-398.13 507.55,-397.63 508.13,-397.13 508.58,-396.50 509.02,-395.87 509.30,-395.15 509.58,-394.44 509.68,-393.68 509.78,-392.91 509.33,-388.20 508.87,-383.49 508.99,-374.08 509.11,-364.67 507.39,-346.76 505.68,-328.85 500.79,-309.67 495.90,-290.48 486.45,-286.43 477.01,-282.39 467.03,-288.88 457.06,-295.37 449.98,-309.18 442.90,-322.98 441.63,-334.22 440.35,-345.47 440.18,-346.22 440.00,-346.97 440.01,-347.75 440.03,-348.52 440.22,-349.27 440.42,-350.02 440.78,-350.70 441.15,-351.38 441.67,-351.95 442.19,-352.52 442.84,-352.95 443.48,-353.38 444.21,-353.64 444.93,-353.91 445.70,-353.99 446.47,-354.07 447.24,-353.97 448.00,-353.87 448.72,-353.58 449.44,-353.30 450.07,-352.85 450.70,-352.40 451.20,-351.82 451.71,-351.23 452.06,-350.54 452.41,-349.85 454.27,-345.55 456.13,-341.25 459.80,-331.22 463.46,-321.18 468.00,-301.81 472.54,-282.44 475.23,-252.61 477.92,-222.79 474.19,-199.96 470.46,-177.13 461.16,-161.91 451.86,-146.70 441.03,-147.39 430.21,-148.09 421.24,-156.41 412.27,-164.73 400.10,-180.04 387.93,-195.35 379.47,-213.60 371.01,-231.85 370.25,-247.05 369.48,-262.24 374.40,-265.74 379.31,-269.24 385.50,-266.16 391.69,-263.09 397.34,-256.73 402.99,-250.37 408.00,-240.31 413.02,-230.25 416.48,-213.44 419.94,-196.63 420.07,-175.47 420.21,-154.31 417.36,-145.90 414.52,-137.50 415.18,-136.99 415.84,-136.49 416.36,-135.84 416.88,-135.18 417.23,-134.43 417.58,-133.67 417.74,-132.86 417.89,-132.04 417.85,-131.21 417.81,-130.38 417.57,-129.58 417.33,-128.78 416.90,-128.07 416.48,-127.35 415.90,-126.76 415.31,-126.16 414.61,-125.72 413.90,-125.29 413.11,-125.03 412.31,-124.78 411.48,-124.72 410.65,-124.66 409.83,-124.80 409.01,-124.95 408.25,-125.28 407.49,-125.61 403.64,-127.45 399.80,-129.28 394.35,-132.91 388.91,-136.54 377.76,-142.40 366.61,-148.26 354.15,-152.62 341.70,-156.99 333.78,-156.29 325.86,-155.60 327.22,-149.33 328.59,-143.06 329.34,-124.96 330.09,-106.85 331.83,-77.61 333.58,-48.36 333.03,-32.25 332.48,-16.15 332.85,-15.60 333.22,-15.05 333.45,-14.42 333.68,-13.80 333.76,-13.14 333.83,-12.48 333.75,-11.82 333.66,-11.16 333.42,-10.54 333.18,-9.93 332.80,-9.38 332.41,-8.84 331.91,-8.40 331.41,-7.97 330.82,-7.66 330.23,-7.36 329.59,-7.21 328.94,-7.05 328.28,-7.06 327.61,-7.07 326.97,-7.23 326.32,-7.39 325.74,-7.71 325.15,-8.02 324.66,-8.47 324.17,-8.91 316.64,-17.36 309.12,-25.80 293.37,-43.80 277.62,-61.79 258.12,-84.71 238.62,-107.64 220.08,-131.88 201.55,-156.12 201.47,-156.84 201.39,-157.55 201.48,-158.27 201.57,-158.98 201.83,-159.65 202.09,-160.32 202.51,-160.91 202.92,-161.50 203.46,-161.97 204.00,-162.44 204.64,-162.77 205.28,-163.10 205.98,-163.27 206.68,-163.43 207.40,-163.43 208.12,-163.42 208.82,-163.24 209.52,-163.07 210.15,-162.73 210.78,-162.39 211.32,-161.91 211.85,-161.42 212.26,-160.83 212.66,-160.23 212.91,-159.56 213.16,-158.88 214.94,-152.50 216.73,-146.12 219.85,-132.85 222.98,-119.59 224.34,-102.35 225.69,-85.12 222.95,-64.79 220.21,-44.46 213.98,-26.90 207.75,-9.33 201.14,5.97 194.54,21.27 188.55,41.62 182.56,61.96 183.55,81.61 184.54,101.27 190.58,113.89 196.61,126.51 207.23,134.62 217.85,142.73 229.34,141.71 240.82,140.70 252.54,135.31 264.26,129.91 266.58,120.41 268.90,110.91 263.83,100.02 258.75,89.14 246.41,69.66 234.08,50.19 214.74,21.65 195.41,-6.89 173.31,-39.22 151.21,-71.56 132.22,-101.70 113.22,-131.83 110.25,-147.34 107.28,-162.85 106.93,-163.75 106.59,-164.66 106.48,-165.62 106.36,-166.58 106.48,-167.54 106.59,-168.50 106.94,-169.40 107.28,-170.31 107.83,-171.10 108.38,-171.90 109.11,-172.54 109.83,-173.18 110.69,-173.63 111.55,-174.08 112.49,-174.31 113.43,-174.54 114.39,-174.54 115.36,-174.54 116.30,-174.30 117.24,-174.07 118.10,-173.62 118.95,-173.17 119.68,-172.53 120.40,-171.89 120.95,-171.09 121.50,-170.29 124.19,-164.11 126.88,-157.92 128.59,-150.62 130.29,-143.32 132.80,-131.62 135.30,-119.91 134.10,-108.02 132.89,-96.12 127.33,-92.59 121.76,-89.06 115.69,-89.52 109.61,-89.98 98.24,-90.31 86.87,-90.63 66.50,-91.46 46.13,-92.28 33.21,-90.75 20.29,-89.22 11.69,-84.23 3.08,-79.24 2.35,-71.48 1.62,-63.72 2.52,-50.36 3.42,-36.99 5.35,-18.82 7.28,-0.66 7.25,0.21 7.22,1.09 6.99,1.94 6.75,2.79 6.32,3.56 5.88,4.33 5.28,4.97 4.68,5.61 3.94,6.09 3.20,6.57 2.36,6.86 1.53,7.14 0.65,7.22 -0.22,7.30 -1.09,7.17 -1.96,7.04 -2.77,6.70 -3.59,6.36 -4.30,5.84 -5.01,5.32 -5.57,4.64 -6.13,3.96 -6.52,3.17 -6.91,2.38 -7.09,1.52 -7.28,0.66 -7.28,0.66 L -7.28,0.66 Z"></path></g><g transform="translate(936.9387762175455 421.94913811823244) rotate(0 18.69547936130698 -44.581780907479924)" stroke="none"><path fill="#1e1e1e" d="M -9.15,0 Q -9.15,0 -8.64,-18.19 -8.12,-36.38 -9.37,-52.00 -10.63,-67.62 -11.87,-80.18 -13.11,-92.73 -14.70,-98.41 -16.30,-104.09 -20.56,-105.34 -24.82,-106.59 -26.34,-92.84 -27.86,-79.09 -26.14,-68.77 -24.43,-58.45 -22.17,-46.19 -19.90,-33.94 -18.10,-26.37 -16.30,-18.80 -13.81,-13.68 -11.31,-8.56 -7.37,-3.57 -3.43,1.42 0.88,7.14 5.21,12.86 8.90,15.17 12.59,17.48 20.46,18.61 28.33,19.73 35.17,13.73 42.01,7.73 49.26,-8.75 56.51,-25.24 59.94,-38.03 63.36,-50.81 64.71,-58.00 66.06,-65.19 66.36,-72.05 66.66,-78.90 67.07,-80.17 67.49,-81.43 68.28,-82.50 69.07,-83.56 70.17,-84.32 71.26,-85.07 72.54,-85.44 73.81,-85.81 75.14,-85.75 76.47,-85.69 77.71,-85.21 78.94,-84.73 79.96,-83.88 80.99,-83.03 81.68,-81.90 82.38,-80.76 82.67,-79.47 82.97,-78.18 82.84,-76.85 82.71,-75.53 82.16,-74.32 81.62,-73.11 80.71,-72.14 79.81,-71.16 78.64,-70.53 77.47,-69.90 76.16,-69.67 74.85,-69.44 73.54,-69.65 72.23,-69.85 71.05,-70.46 69.87,-71.07 68.95,-72.03 68.02,-72.98 67.46,-74.18 66.89,-75.38 66.73,-76.70 66.57,-78.02 66.85,-79.32 67.12,-80.62 67.80,-81.77 68.47,-82.91 69.47,-83.78 70.48,-84.65 71.71,-85.15 72.94,-85.66 74.26,-85.74 75.59,-85.82 76.87,-85.48 78.16,-85.14 79.26,-84.40 80.37,-83.67 81.18,-82.62 82.00,-81.57 82.43,-80.31 82.87,-79.06 82.88,-77.73 82.89,-76.40 82.89,-76.40 82.89,-76.40 81.07,-69.51 79.26,-62.62 77.74,-55.10 76.22,-47.58 72.89,-33.54 69.57,-19.50 60.94,-0.11 52.32,19.27 41.26,27.65 30.20,36.03 23.15,35.43 16.10,34.83 9.74,32.60 3.38,30.37 -1.56,26.13 -6.52,21.90 -10.86,16.12 -15.20,10.34 -19.98,3.84 -24.76,-2.66 -27.22,-9.03 -29.67,-15.40 -31.74,-23.19 -33.81,-30.98 -36.75,-43.20 -39.70,-55.42 -42.46,-67.64 -45.21,-79.87 -45.04,-92.06 -44.86,-104.25 -42.05,-110.57 -39.24,-116.88 -33.53,-120.49 -27.82,-124.10 -21.74,-123.77 -15.66,-123.43 -11.60,-120.46 -7.54,-117.50 -4.94,-112.62 -2.33,-107.74 -0.98,-101.06 0.37,-94.38 2.19,-81.76 4.01,-69.14 6.07,-52.76 8.12,-36.38 8.64,-18.19 9.15,0 9.01,1.09 8.88,2.19 8.49,3.22 8.10,4.25 7.47,5.16 6.85,6.06 6.02,6.80 5.19,7.53 4.22,8.04 3.24,8.55 2.17,8.82 1.10,9.08 -0.00,9.08 -1.10,9.08 -2.17,8.82 -3.24,8.55 -4.22,8.04 -5.19,7.53 -6.02,6.80 -6.85,6.06 -7.47,5.16 -8.10,4.25 -8.49,3.22 -8.88,2.18 -9.01,1.09 -9.15,-0.00 -9.15,-0.00 L -9.15,0 Z"></path></g></svg>